<?xml version="1.0" encoding="UTF-8" standalone="no"?>
<svg
   xmlns:dc="http://purl.org/dc/elements/1.1/"
   xmlns:cc="http://creativecommons.org/ns#"
   xmlns:rdf="http://www.w3.org/1999/02/22-rdf-syntax-ns#"
   xmlns:svg="http://www.w3.org/2000/svg"
   xmlns="http://www.w3.org/2000/svg"
   viewBox="0 0 216.88 141.48"
   height="282.96"
   width="433.76"
   xml:space="preserve"
   id="svg2"
   version="1.1"><metadata
     id="metadata8"><rdf:RDF><cc:Work
         rdf:about=""><dc:format>image/svg+xml</dc:format><dc:type
           rdf:resource="http://purl.org/dc/dcmitype/StillImage" /></cc:Work></rdf:RDF></metadata><defs
     id="defs6" /><g
     transform="matrix(1.3333333,0,0,-1.3333333,0,141.48)"
     id="g10"><g
       transform="translate(72,34.11)"
       id="g12"><g
         transform="translate(8.282,62.499)"
         id="g14"><g
           id="g16"><g
             id="g18"><g
               id="g20"><path
                 id="path22"
                 style="fill:none;stroke:#000000;stroke-width:0.3985;stroke-linecap:butt;stroke-linejoin:miter;stroke-miterlimit:10;stroke-dasharray:none;stroke-opacity:1"
                 d="M 9.30165,0 C 9.30165,5.1372 5.1372,9.30165 0,9.30165 -5.1372,9.30165 -9.30165,5.1372 -9.30165,0 c 0,-5.1372 4.16445,-9.30165 9.30165,-9.30165 5.1372,0 9.30165,4.16445 9.30165,9.30165 z" /><g
                 id="g24"><g
                   transform="scale(-1)"
                   id="g26"><g
                     id="g28" /><g
                     transform="rotate(180,4.141,31.2495)"
                     id="g30"><g
                       id="g32" /><g
                       transform="translate(-2.848,-3.558)"
                       id="g34"><g
                         id="g36"><text
                           id="text40"
                           style="font-variant:normal;font-weight:normal;font-size:9.96259975px;font-family:'Open Sans';-inkscape-font-specification:OpenSans;writing-mode:lr-tb;fill:#000000;fill-opacity:1;fill-rule:nonzero;stroke:none"
                           transform="matrix(1,0,0,-1,8.282,62.499)"><tspan
                             id="tspan38"
                             y="0"
                             x="0">8</tspan></text>
</g></g><g
                       transform="translate(8.282,62.499)"
                       id="g42" /></g></g></g></g><g
               id="g44"><path
                 id="path46"
                 style="fill:none;stroke:#000000;stroke-width:0.3985;stroke-linecap:butt;stroke-linejoin:miter;stroke-miterlimit:10;stroke-dasharray:none;stroke-opacity:1"
                 d="m -33.21854,-28.3468 c 0,5.13722 -4.16444,9.30166 -9.30166,9.30166 -5.13722,0 -9.30167,-4.16444 -9.30167,-9.30166 0,-5.13722 4.16445,-9.30167 9.30167,-9.30167 5.13722,0 9.30166,4.16445 9.30166,9.30167 z" /><g
                 id="g48"><g
                   transform="scale(-1)"
                   id="g50"><g
                     id="g52" /><g
                     transform="rotate(180,4.141,31.2495)"
                     id="g54"><g
                       id="g56" /><g
                       transform="translate(-45.368,-31.905)"
                       id="g58"><g
                         id="g60"><text
                           id="text64"
                           style="font-variant:normal;font-weight:normal;font-size:9.96259975px;font-family:'Open Sans';-inkscape-font-specification:OpenSans;writing-mode:lr-tb;fill:#000000;fill-opacity:1;fill-rule:nonzero;stroke:none"
                           transform="matrix(1,0,0,-1,8.282,62.499)"><tspan
                             id="tspan62"
                             y="0"
                             x="0">3</tspan></text>
</g></g><g
                       transform="translate(8.282,62.499)"
                       id="g66" /></g></g></g></g><g
               id="g68"><path
                 id="path70"
                 style="fill:none;stroke:#000000;stroke-width:0.3985;stroke-linecap:butt;stroke-linejoin:miter;stroke-miterlimit:10;stroke-dasharray:none;stroke-opacity:1"
                 d="m 53.89128,-28.3468 c 0,6.28015 -5.09093,11.37108 -11.37108,11.37108 -6.28015,0 -11.37108,-5.09093 -11.37108,-11.37108 0,-6.28015 5.09093,-11.37108 11.37108,-11.37108 6.28015,0 11.37108,5.09093 11.37108,11.37108 z" /><g
                 id="g72"><g
                   transform="scale(-1)"
                   id="g74"><g
                     id="g76" /><g
                     transform="rotate(180,4.141,31.2495)"
                     id="g78"><g
                       id="g80" /><g
                       transform="translate(36.824,-31.91)"
                       id="g82"><g
                         id="g84"><text
                           id="text88"
                           style="font-variant:normal;font-weight:normal;font-size:9.96259975px;font-family:'Open Sans';-inkscape-font-specification:OpenSans;writing-mode:lr-tb;fill:#000000;fill-opacity:1;fill-rule:nonzero;stroke:none"
                           transform="matrix(1,0,0,-1,8.282,62.499)"><tspan
                             id="tspan86"
                             y="0"
                             x="0 5.698607">10</tspan></text>
</g></g><g
                       transform="translate(8.282,62.499)"
                       id="g90" /></g></g></g></g><g
               id="g92"><path
                 id="path94"
                 style="fill:none;stroke:#000000;stroke-width:0.3985;stroke-linecap:butt;stroke-linejoin:miter;stroke-miterlimit:10;stroke-dasharray:none;stroke-opacity:1"
                 d="m -61.65024,-56.69362 c 0,5.09035 -4.12643,9.21678 -9.21676,9.21678 -5.09035,0 -9.21679,-4.12643 -9.21679,-9.21678 0,-5.09033 4.12644,-9.21677 9.21679,-9.21677 5.09033,0 9.21676,4.12644 9.21676,9.21677 z" /><g
                 id="g96"><g
                   transform="scale(-1)"
                   id="g98"><g
                     id="g100" /><g
                     transform="rotate(180,4.141,31.2495)"
                     id="g102"><g
                       id="g104" /><g
                       transform="translate(-73.715,-60.25)"
                       id="g106"><g
                         id="g108"><text
                           id="text112"
                           style="font-variant:normal;font-weight:normal;font-size:9.96259975px;font-family:'Open Sans';-inkscape-font-specification:OpenSans;writing-mode:lr-tb;fill:#000000;fill-opacity:1;fill-rule:nonzero;stroke:none"
                           transform="matrix(1,0,0,-1,8.282,62.499)"><tspan
                             id="tspan110"
                             y="0"
                             x="0">1</tspan></text>
</g></g><g
                       transform="translate(8.282,62.499)"
                       id="g114" /></g></g></g></g><g
               id="g116"><path
                 id="path118"
                 style="fill:none;stroke:#000000;stroke-width:0.3985;stroke-linecap:butt;stroke-linejoin:miter;stroke-miterlimit:10;stroke-dasharray:none;stroke-opacity:1"
                 d="m -4.87172,-56.69362 c 0,5.13722 -4.16444,9.30167 -9.30167,9.30167 -5.13722,0 -9.30166,-4.16445 -9.30166,-9.30167 0,-5.13721 4.16444,-9.30165 9.30166,-9.30165 5.13723,0 9.30167,4.16444 9.30167,9.30165 z" /><g
                 id="g120"><g
                   transform="scale(-1)"
                   id="g122"><g
                     id="g124" /><g
                     transform="rotate(180,4.141,31.2495)"
                     id="g126"><g
                       id="g128" /><g
                       transform="translate(-17.022,-60.252)"
                       id="g130"><g
                         id="g132"><text
                           id="text136"
                           style="font-variant:normal;font-weight:normal;font-size:9.96259975px;font-family:'Open Sans';-inkscape-font-specification:OpenSans;writing-mode:lr-tb;fill:#000000;fill-opacity:1;fill-rule:nonzero;stroke:none"
                           transform="matrix(1,0,0,-1,8.282,62.499)"><tspan
                             id="tspan134"
                             y="0"
                             x="0">6</tspan></text>
</g></g><g
                       transform="translate(8.282,62.499)"
                       id="g138" /></g></g></g></g><g
               id="g140"><path
                 id="path142"
                 style="fill:none;stroke:#000000;stroke-width:0.3985;stroke-linecap:butt;stroke-linejoin:miter;stroke-miterlimit:10;stroke-dasharray:none;stroke-opacity:1"
                 d="m -26.19069,-85.04042 c 0,5.10472 -4.13809,9.2428 -9.2428,9.2428 -5.10472,0 -9.24281,-4.13808 -9.24281,-9.2428 0,-5.10472 4.13809,-9.2428 9.24281,-9.2428 5.10471,0 9.2428,4.13808 9.2428,9.2428 z" /><g
                 id="g144"><g
                   transform="scale(-1)"
                   id="g146"><g
                     id="g148" /><g
                     transform="rotate(180,4.141,31.2495)"
                     id="g150"><g
                       id="g152" /><g
                       transform="translate(-38.282,-88.616)"
                       id="g154"><g
                         id="g156"><text
                           id="text160"
                           style="font-variant:normal;font-weight:normal;font-size:9.96259975px;font-family:'Open Sans';-inkscape-font-specification:OpenSans;writing-mode:lr-tb;fill:#000000;fill-opacity:1;fill-rule:nonzero;stroke:none"
                           transform="matrix(1,0,0,-1,8.282,62.499)"><tspan
                             id="tspan158"
                             y="0"
                             x="0">4</tspan></text>
</g></g><g
                       transform="translate(8.282,62.499)"
                       id="g162" /></g></g></g></g><g
               id="g164"><path
                 id="path166"
                 style="fill:none;stroke:#000000;stroke-width:0.3985;stroke-linecap:butt;stroke-linejoin:miter;stroke-miterlimit:10;stroke-dasharray:none;stroke-opacity:1"
                 d="m 16.30347,-85.04042 c 0,5.09033 -4.12645,9.21678 -9.21678,9.21678 -5.09034,0 -9.21677,-4.12645 -9.21677,-9.21678 0,-5.09033 4.12643,-9.21678 9.21677,-9.21678 5.09033,0 9.21678,4.12645 9.21678,9.21678 z" /><g
                 id="g168"><g
                   transform="scale(-1)"
                   id="g170"><g
                     id="g172" /><g
                     transform="rotate(180,4.141,31.2495)"
                     id="g174"><g
                       id="g176" /><g
                       transform="translate(4.238,-88.596)"
                       id="g178"><g
                         id="g180"><text
                           id="text184"
                           style="font-variant:normal;font-weight:normal;font-size:9.96259975px;font-family:'Open Sans';-inkscape-font-specification:OpenSans;writing-mode:lr-tb;fill:#000000;fill-opacity:1;fill-rule:nonzero;stroke:none"
                           transform="matrix(1,0,0,-1,8.282,62.499)"><tspan
                             id="tspan182"
                             y="0"
                             x="0">7</tspan></text>
</g></g><g
                       transform="translate(8.282,62.499)"
                       id="g186" /></g></g></g></g><g
               id="g188"><path
                 id="path190"
                 style="fill:none;stroke:#000000;stroke-width:0.3985;stroke-linecap:butt;stroke-linejoin:miter;stroke-miterlimit:10;stroke-dasharray:none;stroke-opacity:1"
                 d="m 82.18239,-56.69362 c 0,6.24939 -5.06599,11.31539 -11.31539,11.31539 -6.24937,0 -11.31536,-5.066 -11.31536,-11.31539 0,-6.24938 5.06599,-11.31537 11.31536,-11.31537 6.2494,0 11.31539,5.06599 11.31539,11.31537 z" /><g
                 id="g192"><g
                   transform="scale(-1)"
                   id="g194"><g
                     id="g196" /><g
                     transform="rotate(180,4.141,31.2495)"
                     id="g198"><g
                       id="g200" /><g
                       transform="translate(65.171,-60.269)"
                       id="g202"><g
                         id="g204"><text
                           id="text208"
                           style="font-variant:normal;font-weight:normal;font-size:9.96259975px;font-family:'Open Sans';-inkscape-font-specification:OpenSans;writing-mode:lr-tb;fill:#000000;fill-opacity:1;fill-rule:nonzero;stroke:none"
                           transform="matrix(1,0,0,-1,8.282,62.499)"><tspan
                             id="tspan206"
                             y="0"
                             x="0 5.698607">14</tspan></text>
</g></g><g
                       transform="translate(8.282,62.499)"
                       id="g210" /></g></g></g></g><g
               id="g212"><path
                 id="path214"
                 style="fill:none;stroke:#000000;stroke-width:0.3985;stroke-linecap:butt;stroke-linejoin:miter;stroke-miterlimit:10;stroke-dasharray:none;stroke-opacity:1"
                 d="m 60.97798,-85.04042 c 0,6.28015 -5.09093,11.37108 -11.37108,11.37108 -6.28015,0 -11.37108,-5.09093 -11.37108,-11.37108 0,-6.28015 5.09093,-11.37108 11.37108,-11.37108 6.28015,0 11.37108,5.09093 11.37108,11.37108 z" /><g
                 id="g216"><g
                   transform="scale(-1)"
                   id="g218"><g
                     id="g220" /><g
                     transform="rotate(180,4.141,31.2495)"
                     id="g222"><g
                       id="g224" /><g
                       transform="translate(43.91,-88.599)"
                       id="g226"><g
                         id="g228"><text
                           id="text232"
                           style="font-variant:normal;font-weight:normal;font-size:9.96259975px;font-family:'Open Sans';-inkscape-font-specification:OpenSans;writing-mode:lr-tb;fill:#000000;fill-opacity:1;fill-rule:nonzero;stroke:none"
                           transform="matrix(1,0,0,-1,8.282,62.499)"><tspan
                             id="tspan230"
                             y="0"
                             x="0 5.698607">13</tspan></text>
</g></g><g
                       transform="translate(8.282,62.499)"
                       id="g234" /></g></g></g></g><path
               id="path236"
               style="fill:none;stroke:#000000;stroke-width:0.3985;stroke-linecap:butt;stroke-linejoin:miter;stroke-miterlimit:10;stroke-dasharray:none;stroke-opacity:1"
               d="M -7.90489,-5.26988 -34.6153,-23.07692" /><path
               id="path238"
               style="fill:none;stroke:#000000;stroke-width:0.3985;stroke-linecap:butt;stroke-linejoin:miter;stroke-miterlimit:10;stroke-dasharray:none;stroke-opacity:1"
               d="M 7.90489,-5.26988 32.8935,-21.92908" /><path
               id="path240"
               style="fill:none;stroke:#000000;stroke-width:0.3985;stroke-linecap:butt;stroke-linejoin:miter;stroke-miterlimit:10;stroke-dasharray:none;stroke-opacity:1"
               d="M -49.23836,-35.06497 -64.20888,-50.03548" /><path
               id="path242"
               style="fill:none;stroke:#000000;stroke-width:0.3985;stroke-linecap:butt;stroke-linejoin:miter;stroke-miterlimit:10;stroke-dasharray:none;stroke-opacity:1"
               d="m -35.80203,-35.06497 14.91047,-14.91048" /><path
               id="path244"
               style="fill:none;stroke:#000000;stroke-width:0.3985;stroke-linecap:butt;stroke-linejoin:miter;stroke-miterlimit:10;stroke-dasharray:none;stroke-opacity:1"
               d="m -19.87355,-64.29422 -9.89481,-13.19283" /><path
               id="path246"
               style="fill:none;stroke:#000000;stroke-width:0.3985;stroke-linecap:butt;stroke-linejoin:miter;stroke-miterlimit:10;stroke-dasharray:none;stroke-opacity:1"
               d="M -8.47293,-64.29408 1.43744,-77.50772" /><path
               id="path248"
               style="fill:none;stroke:#000000;stroke-width:0.3985;stroke-linecap:butt;stroke-linejoin:miter;stroke-miterlimit:10;stroke-dasharray:none;stroke-opacity:1"
               d="M 50.70166,-36.52826 62.72493,-48.55154" /><path
               id="path250"
               style="fill:none;stroke:#000000;stroke-width:0.3985;stroke-linecap:butt;stroke-linejoin:miter;stroke-miterlimit:10;stroke-dasharray:none;stroke-opacity:1"
               d="m 63.9587,-65.90518 -7.4097,-9.8793" /></g></g></g></g></g></svg>
