<svg width="350" height="253" xmlns="http://www.w3.org/2000/svg" xmlns:svg="http://www.w3.org/2000/svg">
 <metadata id="metadata2625">Adobe PDF library 5.00
  <!-- pdf:CreationDate is aliased -->
  <!-- pdf:ModDate is aliased -->
  <!-- pdf:Creator is aliased -->2004-01-23T20:04:24-04:002005-12-31T21:30:20ZAdobe Illustrator 10.02004-01-23T20:25:01-05:00image/svg+xml</metadata>
 <g id="graph0" class="graph" transform="scale(1 1) rotate(0) translate(20 0)">
  <title>Layer 1</title>
  <g id="g2987" transform="matrix(1.012,0,0,1.012,180.0865,42.504) ">
   <path transform="translate(70.000004,-15)" d="m-85.00001,-2a20,20 0 1 1 -40,0a20,20 0 1 1 40,0z" id="path2981" stroke-dashoffset="0" stroke-miterlimit="4" stroke-width="2" stroke="#000000" fill="none"/>
   <text id="text2983" y="-8.09375" x="-42.3125" xml:space="preserve" font-family="DejaVu Sans" stroke-dashoffset="0" stroke-miterlimit="4" stroke-width="2" fill="#000000" text-anchor="start" font-weight="normal" font-style="normal" font-size="24px">
    <tspan y="-8.09375" x="-42.3125" id="tspan2985">8</tspan>
   </text>
  </g>
  <g id="g2992" transform="matrix(1.012,0,0,1.012,104.1865,98.164) ">
   <path transform="translate(70.000004,-15)" d="m-85.00001,-2a20,20 0 1 1 -40,0a20,20 0 1 1 40,0z" id="path2994" stroke-dashoffset="0" stroke-miterlimit="4" stroke-width="2" stroke="#000000" fill="none"/>
   <text id="text2996" y="-8.09375" x="-42.3125" xml:space="preserve" font-family="DejaVu Sans" stroke-dashoffset="0" stroke-miterlimit="4" stroke-width="2" fill="#000000" text-anchor="start" font-weight="normal" font-style="normal" font-size="24px">
    <tspan y="-8.09375" x="-42.3125" id="tspan2998">3</tspan>
   </text>
  </g>
  <g id="g3000" transform="matrix(1.012,0,0,1.012,255.9865,98.164) ">
   <path transform="translate(70.000004,-15)" d="m-85.00001,-2a20,20 0 1 1 -40,0a20,20 0 1 1 40,0z" id="path3002" stroke-dashoffset="0" stroke-miterlimit="4" stroke-width="2" stroke="#000000" fill="none"/>
   <text id="text3004" y="-8.09375" x="-50.75" xml:space="preserve" font-family="DejaVu Sans" stroke-dashoffset="0" stroke-miterlimit="4" stroke-width="2" fill="#000000" text-anchor="start" font-weight="normal" font-style="normal" font-size="24px">
    <tspan y="-8.09375" x="-50.75" id="tspan3006">10</tspan>
   </text>
  </g>
  <g id="g3008" transform="matrix(1.012,0,0,1.012,53.586504,174.064) ">
   <path transform="translate(70.000004,-15)" d="m-85.00001,-2a20,20 0 1 1 -40,0a20,20 0 1 1 40,0z" id="path3010" stroke-dashoffset="0" stroke-miterlimit="4" stroke-width="2" stroke="#000000" fill="none"/>
   <text id="text3012" y="-8.09375" x="-42.3125" xml:space="preserve" font-family="DejaVu Sans" stroke-dashoffset="0" stroke-miterlimit="4" stroke-width="2" fill="#000000" text-anchor="start" font-weight="normal" font-style="normal" font-size="24px">
    <tspan y="-8.09375" x="-42.3125" id="tspan3014">1</tspan>
   </text>
  </g>
  <g id="g3016" transform="matrix(1.012,0,0,1.012,154.7865,174.064) ">
   <path transform="translate(70.000004,-15)" d="m-85.00001,-2a20,20 0 1 1 -40,0a20,20 0 1 1 40,0z" id="path3018" stroke-dashoffset="0" stroke-miterlimit="4" stroke-width="2" stroke="#000000" fill="none"/>
   <text id="text3020" y="-8.09375" x="-42.3125" xml:space="preserve" font-family="DejaVu Sans" stroke-dashoffset="0" stroke-miterlimit="4" stroke-width="2" fill="#000000" text-anchor="start" font-weight="normal" font-style="normal" font-size="24px">
    <tspan y="-8.09375" x="-42.3125" id="tspan3022">6</tspan>
   </text>
  </g>
  <g id="g3024" transform="matrix(1.012,0,0,1.012,306.5865,174.064) ">
   <path transform="translate(70.000004,-15)" d="m-85.00001,-2a20,20 0 1 1 -40,0a20,20 0 1 1 40,0z" id="path3026" stroke-dashoffset="0" stroke-miterlimit="4" stroke-width="2" stroke="#000000" fill="none"/>
   <text id="text3028" y="-8.09375" x="-50.75" xml:space="preserve" font-family="DejaVu Sans" stroke-dashoffset="0" stroke-miterlimit="4" stroke-width="2" fill="#000000" text-anchor="start" font-weight="normal" font-style="normal" font-size="24px">
    <tspan y="-8.09375" x="-50.75" id="tspan3030">14</tspan>
   </text>
  </g>
  <g id="g3032" transform="matrix(1.012,0,0,1.012,114.3065,244.904) ">
   <path transform="translate(70.000004,-15)" d="m-85.00001,-2a20,20 0 1 1 -40,0a20,20 0 1 1 40,0z" id="path3034" stroke-dashoffset="0" stroke-miterlimit="4" stroke-width="2" stroke="#000000" fill="none"/>
   <text id="text3036" y="-8.09375" x="-42.3125" xml:space="preserve" font-family="DejaVu Sans" stroke-dashoffset="0" stroke-miterlimit="4" stroke-width="2" fill="#000000" text-anchor="start" font-weight="normal" font-style="normal" font-size="24px">
    <tspan y="-8.09375" x="-42.3125" id="tspan3038">4</tspan>
   </text>
  </g>
  <g id="g3040" transform="matrix(1.012,0,0,1.012,186.99459,244.7439) ">
   <path transform="translate(78.173832,-14.841797)" d="m-85.00001,-2a20,20 0 1 1 -40,0a20,20 0 1 1 40,0z" id="path3042" stroke-dashoffset="0" stroke-miterlimit="4" stroke-width="2" stroke="#000000" fill="none"/>
   <text id="text3044" y="-8.09375" x="-34.3125" xml:space="preserve" font-family="DejaVu Sans" stroke-dashoffset="0" stroke-miterlimit="4" stroke-width="2" fill="#000000" text-anchor="start" font-weight="normal" font-style="normal" font-size="24px">
    <tspan y="-8.09375" x="-34.3125" id="tspan3046">7</tspan>
   </text>
  </g>
  <g id="g3048" transform="matrix(1.012,0,0,1.012,255.9865,244.904) ">
   <path transform="translate(70.000004,-15)" d="m-85.00001,-2a20,20 0 1 1 -40,0a20,20 0 1 1 40,0z" id="path3050" stroke-dashoffset="0" stroke-miterlimit="4" stroke-width="2" stroke="#000000" fill="none"/>
   <text id="text3052" y="-8.34375" x="-50.0625" xml:space="preserve" font-family="DejaVu Sans" stroke-dashoffset="0" stroke-miterlimit="4" stroke-width="2" fill="#000000" text-anchor="start" font-weight="normal" font-style="normal" font-size="24px">
    <tspan y="-8.34375" x="-50.0625" id="tspan3054">13</tspan>
   </text>
  </g>
  <g id="g3096" transform="matrix(-0.5977378,-0.8016917,0.8016917,-0.5977378,131.92766,233.80719) ">
   <path id="path3092" d="m159.85851,60.69599l-3.04799,14.192l6.096,0l-3.04801,-14.192z" stroke-dashoffset="0" stroke-miterlimit="4" stroke-width="2" stroke="#000000" fill="#000000"/>
   <path id="path3094" d="m159.8465,70.84l0,43.93551" stroke-dashoffset="0" stroke-miterlimit="4" stroke-width="2" stroke="#000000" fill="#000000"/>
  </g>
  <g id="g3106" transform="matrix(0.5977378,-0.8016917,-0.8016917,-0.5977378,156.4102,233.80719) ">
   <path id="path3108" d="m159.85851,60.69599l-3.04799,14.192l6.096,0l-3.04801,-14.192z" stroke-dashoffset="0" stroke-miterlimit="4" stroke-width="2" stroke="#000000" fill="#000000"/>
   <path id="path3110" d="m159.8465,70.84l0,43.93551" stroke-dashoffset="0" stroke-miterlimit="4" stroke-width="2" stroke="#000000" fill="#000000"/>
  </g>
  <g id="g3112" transform="matrix(-0.8365457,-0.5478973,0.5478973,-0.8365457,130.66361,278.06882) ">
   <path id="path3114" d="m159.85851,60.69599l-3.04799,14.192l6.096,0l-3.04801,-14.192z" stroke-dashoffset="0" stroke-miterlimit="4" stroke-width="2" stroke="#000000" fill="#000000"/>
   <path id="path3116" d="m159.8465,70.84l0,39.91866" stroke-dashoffset="0" stroke-miterlimit="4" stroke-width="2" stroke="#000000" fill="#000000"/>
  </g>
  <g id="g3118" transform="matrix(0.8365457,-0.5478973,-0.5478973,-0.8365457,7.2566425,278.14736) ">
   <path id="path3120" d="m159.85851,60.69599l-3.04799,14.192l6.096,0l-3.04801,-14.192z" stroke-dashoffset="0" stroke-miterlimit="4" stroke-width="2" stroke="#000000" fill="#000000"/>
   <path id="path3122" d="m159.8465,70.84l0,39.91866" stroke-dashoffset="0" stroke-miterlimit="4" stroke-width="2" stroke="#000000" fill="#000000"/>
  </g>
  <g id="g3124" transform="matrix(0.8365457,-0.5478973,-0.5478973,-0.8365457,159.56264,277.89436) ">
   <path id="path3126" d="m159.85851,60.69599l-3.04799,14.192l6.096,0l-3.04801,-14.192z" stroke-dashoffset="0" stroke-miterlimit="4" stroke-width="2" stroke="#000000" fill="#000000"/>
   <path id="path3128" d="m159.8465,70.84l0,39.91866" stroke-dashoffset="0" stroke-miterlimit="4" stroke-width="2" stroke="#000000" fill="#000000"/>
  </g>
  <g id="g3130" transform="matrix(-0.8365457,-0.5478973,0.5478973,-0.8365457,333.18236,349.49336) ">
   <path id="path3132" d="m159.85851,60.69599l-3.04799,14.192l6.096,0l-3.04801,-14.192z" stroke-dashoffset="0" stroke-miterlimit="4" stroke-width="2" stroke="#000000" fill="#000000"/>
   <path id="path3134" d="m159.8465,70.84l0,36.27828" stroke-dashoffset="0" stroke-miterlimit="4" stroke-width="2" stroke="#000000" fill="#000000"/>
  </g>
  <g id="g3142" transform="matrix(0.8759388,-0.4824224,-0.4824224,-0.8759388,39.629941,340.20004) ">
   <path id="path3144" d="m159.85851,60.69599l-3.04799,14.192l6.096,0l-3.04801,-14.192z" stroke-dashoffset="0" stroke-miterlimit="4" stroke-width="2" stroke="#000000" fill="#000000"/>
   <path id="path3146" d="m159.8465,70.84l0,31.1306" stroke-dashoffset="0" stroke-miterlimit="4" stroke-width="2" stroke="#000000" fill="#000000"/>
  </g>
  <g id="g3148" transform="matrix(-0.8759388,-0.4824224,0.4824224,-0.8759388,199.90745,341.56504) ">
   <path id="path3150" d="m159.85851,60.69599l-3.04799,14.192l6.096,0l-3.04801,-14.192z" stroke-dashoffset="0" stroke-miterlimit="4" stroke-width="2" stroke="#000000" fill="#000000"/>
   <path id="path3152" d="m159.8465,70.84l0,31.1306" stroke-dashoffset="0" stroke-miterlimit="4" stroke-width="2" stroke="#000000" fill="#000000"/>
  </g>
  <g id="svg_7">
   <line id="svg_4" y2="37.25" x2="92.9165" y1="26.5625" x1="112.604" stroke="#00007f" fill="none"/>
   <line id="svg_5" y2="45.6875" x2="110.9165" y1="36.6875" x1="92.9165" stroke="#00007f" fill="none"/>
   <line stroke="#00007f" id="svg_6" y2="49.0625" x2="108.6665" y1="40.625" x1="91.229" fill="none"/>
  </g>
  <g id="svg_8">
   <line id="svg_9" y2="111.5" x2="21.72949" y1="100.8125" x1="41.41699" stroke="#00007f" fill="none"/>
   <line id="svg_10" y2="119.9375" x2="39.72949" y1="110.9375" x1="21.72949" stroke="#00007f" fill="none"/>
   <line stroke="#00007f" id="svg_11" y2="123.3125" x2="37.47949" y1="114.875" x1="20.04199" fill="none"/>
  </g>
  <g id="svg_12">
   <line id="svg_13" y2="180.12501" x2="74.60449" y1="169.43751" x1="94.29199" stroke="#00007f" fill="none"/>
   <line id="svg_14" y2="188.56251" x2="92.60449" y1="179.56251" x1="74.60449" stroke="#00007f" fill="none"/>
   <line stroke="#00007f" id="svg_15" y2="191.93751" x2="90.35449" y1="183.50001" x1="72.91699" fill="none"/>
  </g>
  <g id="svg_16">
   <line id="svg_17" y2="178.43751" x2="225.91701" y1="167.75001" x1="245.60451" stroke="#00007f" fill="none"/>
   <line id="svg_18" y2="186.87501" x2="243.91701" y1="177.87501" x1="225.91701" stroke="#00007f" fill="none"/>
   <line stroke="#00007f" id="svg_19" y2="190.25001" x2="241.66701" y1="181.81251" x1="224.22951" fill="none"/>
  </g>
  <g id="svg_23">
   <line id="svg_20" y2="36.6875" x2="210.47901" y1="27.125" x1="190.22901" stroke-linecap="null" stroke-linejoin="null" stroke-dasharray="null" stroke-width="null" stroke="#ff0000" fill="#ff0000"/>
   <line id="svg_21" y2="46.8125" x2="190.79151" y1="37.25" x1="209.35401" stroke-linecap="null" stroke-linejoin="null" stroke-dasharray="null" stroke-width="null" stroke="#ff0000" fill="#ff0000"/>
  </g>
  <g id="svg_24">
   <line id="svg_25" y2="111.78125" x2="272.60452" y1="102.21875" x1="252.35451" stroke-linecap="null" stroke-linejoin="null" stroke-dasharray="null" stroke-width="null" stroke="#ff0000" fill="#ff0000"/>
   <line id="svg_26" y2="121.90625" x2="252.91702" y1="112.34375" x1="271.47952" stroke-linecap="null" stroke-linejoin="null" stroke-dasharray="null" stroke-width="null" stroke="#ff0000" fill="#ff0000"/>
  </g>
  <g id="svg_27">
   <line id="svg_28" y2="182.65626" x2="166.292" y1="173.09376" x1="146.042" stroke-linecap="null" stroke-linejoin="null" stroke-dasharray="null" stroke-width="null" stroke="#ff0000" fill="#ff0000"/>
   <line id="svg_29" y2="192.78126" x2="146.6045" y1="183.21876" x1="165.167" stroke-linecap="null" stroke-linejoin="null" stroke-dasharray="null" stroke-width="null" stroke="#ff0000" fill="#ff0000"/>
  </g>
 </g>
</svg>