<?xml version="1.0" encoding="UTF-8" standalone="no"?>
<!DOCTYPE svg PUBLIC "-//W3C//DTD SVG 1.1//EN"
 "http://www.w3.org/Graphics/SVG/1.1/DTD/svg11.dtd">
<!-- Generated by graphviz version 2.40.1 (20161225.0304)
 -->
<!-- Title: G Pages: 1 -->
<svg width="422pt" height="332pt"
 viewBox="0.00 0.00 422.00 332.00" xmlns="http://www.w3.org/2000/svg" xmlns:xlink="http://www.w3.org/1999/xlink">
<g id="graph0" class="graph" transform="scale(1 1) rotate(0) translate(4 328)">
<title>G</title>
<polygon fill="#ffffff" stroke="transparent" points="-4,4 -4,-328 418,-328 418,4 -4,4"/>
<!-- A -->
<g id="node1" class="node">
<title>A</title>
<ellipse fill="none" stroke="#000000" cx="171" cy="-306" rx="27" ry="18"/>
<text text-anchor="middle" x="171" y="-301.8" font-family="Times,serif" font-size="14.00" fill="#000000">A</text>
</g>
<!-- B -->
<g id="node2" class="node">
<title>B</title>
<ellipse fill="none" stroke="#000000" cx="135" cy="-234" rx="27" ry="18"/>
<text text-anchor="middle" x="135" y="-229.8" font-family="Times,serif" font-size="14.00" fill="#000000">B</text>
</g>
<!-- A&#45;&gt;B -->
<g id="edge1" class="edge">
<title>A&#45;&gt;B</title>
<path fill="none" stroke="#000000" d="M162.2854,-288.5708C158.0403,-280.0807 152.8464,-269.6929 148.1337,-260.2674"/>
<polygon fill="#000000" stroke="#000000" points="151.237,-258.6477 143.6343,-251.2687 144.976,-261.7782 151.237,-258.6477"/>
</g>
<!-- C -->
<g id="node3" class="node">
<title>C</title>
<ellipse fill="none" stroke="#000000" cx="243" cy="-234" rx="27" ry="18"/>
<text text-anchor="middle" x="243" y="-229.8" font-family="Times,serif" font-size="14.00" fill="#000000">C</text>
</g>
<!-- A&#45;&gt;C -->
<g id="edge2" class="edge">
<title>A&#45;&gt;C</title>
<path fill="none" stroke="#000000" d="M186.2693,-290.7307C196.197,-280.803 209.3153,-267.6847 220.4363,-256.5637"/>
<polygon fill="#000000" stroke="#000000" points="223.1564,-258.7933 227.7527,-249.2473 218.2067,-253.8436 223.1564,-258.7933"/>
</g>
<!-- D -->
<g id="node4" class="node">
<title>D</title>
<ellipse fill="none" stroke="#000000" cx="45" cy="-162" rx="27" ry="18"/>
<text text-anchor="middle" x="45" y="-157.8" font-family="Times,serif" font-size="14.00" fill="#000000">D</text>
</g>
<!-- B&#45;&gt;D -->
<g id="edge3" class="edge">
<title>B&#45;&gt;D</title>
<path fill="none" stroke="#000000" d="M117.6471,-220.1177C104.2003,-209.3602 85.3761,-194.3009 70.259,-182.2072"/>
<polygon fill="#000000" stroke="#000000" points="72.2948,-179.3536 62.2996,-175.8397 67.9219,-184.8197 72.2948,-179.3536"/>
</g>
<!-- E -->
<g id="node5" class="node">
<title>E</title>
<ellipse fill="none" stroke="#000000" cx="135" cy="-162" rx="27" ry="18"/>
<text text-anchor="middle" x="135" y="-157.8" font-family="Times,serif" font-size="14.00" fill="#000000">E</text>
</g>
<!-- B&#45;&gt;E -->
<g id="edge4" class="edge">
<title>B&#45;&gt;E</title>
<path fill="none" stroke="#000000" d="M135,-215.8314C135,-208.131 135,-198.9743 135,-190.4166"/>
<polygon fill="#000000" stroke="#000000" points="138.5001,-190.4132 135,-180.4133 131.5001,-190.4133 138.5001,-190.4132"/>
</g>
<!-- F -->
<g id="node6" class="node">
<title>F</title>
<ellipse fill="none" stroke="#000000" cx="243" cy="-162" rx="27" ry="18"/>
<text text-anchor="middle" x="243" y="-157.8" font-family="Times,serif" font-size="14.00" fill="#000000">F</text>
</g>
<!-- C&#45;&gt;F -->
<g id="edge5" class="edge">
<title>C&#45;&gt;F</title>
<path fill="none" stroke="#000000" d="M243,-215.8314C243,-208.131 243,-198.9743 243,-190.4166"/>
<polygon fill="#000000" stroke="#000000" points="246.5001,-190.4132 243,-180.4133 239.5001,-190.4133 246.5001,-190.4132"/>
</g>
<!-- G -->
<g id="node7" class="node">
<title>G</title>
<ellipse fill="none" stroke="#000000" cx="315" cy="-162" rx="27" ry="18"/>
<text text-anchor="middle" x="315" y="-157.8" font-family="Times,serif" font-size="14.00" fill="#000000">G</text>
</g>
<!-- C&#45;&gt;G -->
<g id="edge6" class="edge">
<title>C&#45;&gt;G</title>
<path fill="none" stroke="#000000" d="M258.2693,-218.7307C268.197,-208.803 281.3153,-195.6847 292.4363,-184.5637"/>
<polygon fill="#000000" stroke="#000000" points="295.1564,-186.7933 299.7527,-177.2473 290.2067,-181.8436 295.1564,-186.7933"/>
</g>
<!-- H -->
<g id="node8" class="node">
<title>H</title>
<ellipse fill="none" stroke="#000000" cx="27" cy="-90" rx="27" ry="18"/>
<text text-anchor="middle" x="27" y="-85.8" font-family="Times,serif" font-size="14.00" fill="#000000">H</text>
</g>
<!-- D&#45;&gt;H -->
<g id="edge7" class="edge">
<title>D&#45;&gt;H</title>
<path fill="none" stroke="#000000" d="M40.5506,-144.2022C38.5602,-136.2406 36.1668,-126.6671 33.9489,-117.7957"/>
<polygon fill="#000000" stroke="#000000" points="37.2816,-116.6951 31.4606,-107.8425 30.4906,-118.3929 37.2816,-116.6951"/>
</g>
<!-- I -->
<g id="node9" class="node">
<title>I</title>
<ellipse fill="none" stroke="#000000" cx="99" cy="-90" rx="27" ry="18"/>
<text text-anchor="middle" x="99" y="-85.8" font-family="Times,serif" font-size="14.00" fill="#000000">I</text>
</g>
<!-- E&#45;&gt;I -->
<g id="edge8" class="edge">
<title>E&#45;&gt;I</title>
<path fill="none" stroke="#000000" d="M126.2854,-144.5708C122.0403,-136.0807 116.8464,-125.6929 112.1337,-116.2674"/>
<polygon fill="#000000" stroke="#000000" points="115.237,-114.6477 107.6343,-107.2687 108.976,-117.7782 115.237,-114.6477"/>
</g>
<!-- J -->
<g id="node10" class="node">
<title>J</title>
<ellipse fill="none" stroke="#000000" cx="171" cy="-90" rx="27" ry="18"/>
<text text-anchor="middle" x="171" y="-85.8" font-family="Times,serif" font-size="14.00" fill="#000000">J</text>
</g>
<!-- E&#45;&gt;J -->
<g id="edge9" class="edge">
<title>E&#45;&gt;J</title>
<path fill="none" stroke="#000000" d="M143.7146,-144.5708C147.9597,-136.0807 153.1536,-125.6929 157.8663,-116.2674"/>
<polygon fill="#000000" stroke="#000000" points="161.024,-117.7782 162.3657,-107.2687 154.763,-114.6477 161.024,-117.7782"/>
</g>
<!-- K -->
<g id="node11" class="node">
<title>K</title>
<ellipse fill="none" stroke="#000000" cx="243" cy="-90" rx="27" ry="18"/>
<text text-anchor="middle" x="243" y="-85.8" font-family="Times,serif" font-size="14.00" fill="#000000">K</text>
</g>
<!-- F&#45;&gt;K -->
<g id="edge10" class="edge">
<title>F&#45;&gt;K</title>
<path fill="none" stroke="#000000" d="M243,-143.8314C243,-136.131 243,-126.9743 243,-118.4166"/>
<polygon fill="#000000" stroke="#000000" points="246.5001,-118.4132 243,-108.4133 239.5001,-118.4133 246.5001,-118.4132"/>
</g>
<!-- L -->
<g id="node12" class="node">
<title>L</title>
<ellipse fill="none" stroke="#000000" cx="315" cy="-90" rx="27" ry="18"/>
<text text-anchor="middle" x="315" y="-85.8" font-family="Times,serif" font-size="14.00" fill="#000000">L</text>
</g>
<!-- G&#45;&gt;L -->
<g id="edge11" class="edge">
<title>G&#45;&gt;L</title>
<path fill="none" stroke="#000000" d="M315,-143.8314C315,-136.131 315,-126.9743 315,-118.4166"/>
<polygon fill="#000000" stroke="#000000" points="318.5001,-118.4132 315,-108.4133 311.5001,-118.4133 318.5001,-118.4132"/>
</g>
<!-- M -->
<g id="node13" class="node">
<title>M</title>
<ellipse fill="none" stroke="#000000" cx="387" cy="-90" rx="27" ry="18"/>
<text text-anchor="middle" x="387" y="-85.8" font-family="Times,serif" font-size="14.00" fill="#000000">M</text>
</g>
<!-- G&#45;&gt;M -->
<g id="edge12" class="edge">
<title>G&#45;&gt;M</title>
<path fill="none" stroke="#000000" d="M330.2693,-146.7307C340.197,-136.803 353.3153,-123.6847 364.4363,-112.5637"/>
<polygon fill="#000000" stroke="#000000" points="367.1564,-114.7933 371.7527,-105.2473 362.2067,-109.8436 367.1564,-114.7933"/>
</g>
<!-- N -->
<g id="node14" class="node">
<title>N</title>
<ellipse fill="none" stroke="#000000" cx="27" cy="-18" rx="27" ry="18"/>
<text text-anchor="middle" x="27" y="-13.8" font-family="Times,serif" font-size="14.00" fill="#000000">N</text>
</g>
<!-- H&#45;&gt;N -->
<g id="edge13" class="edge">
<title>H&#45;&gt;N</title>
<path fill="none" stroke="#000000" d="M27,-71.8314C27,-64.131 27,-54.9743 27,-46.4166"/>
<polygon fill="#000000" stroke="#000000" points="30.5001,-46.4132 27,-36.4133 23.5001,-46.4133 30.5001,-46.4132"/>
</g>
<!-- O -->
<g id="node15" class="node">
<title>O</title>
<ellipse fill="none" stroke="#000000" cx="99" cy="-18" rx="27" ry="18"/>
<text text-anchor="middle" x="99" y="-13.8" font-family="Times,serif" font-size="14.00" fill="#000000">O</text>
</g>
<!-- I&#45;&gt;O -->
<g id="edge14" class="edge">
<title>I&#45;&gt;O</title>
<path fill="none" stroke="#000000" d="M99,-71.8314C99,-64.131 99,-54.9743 99,-46.4166"/>
<polygon fill="#000000" stroke="#000000" points="102.5001,-46.4132 99,-36.4133 95.5001,-46.4133 102.5001,-46.4132"/>
</g>
<!-- P -->
<g id="node16" class="node">
<title>P</title>
<ellipse fill="none" stroke="#000000" cx="279" cy="-18" rx="27" ry="18"/>
<text text-anchor="middle" x="279" y="-13.8" font-family="Times,serif" font-size="14.00" fill="#000000">P</text>
</g>
<!-- L&#45;&gt;P -->
<g id="edge15" class="edge">
<title>L&#45;&gt;P</title>
<path fill="none" stroke="#000000" d="M306.2854,-72.5708C302.0403,-64.0807 296.8464,-53.6929 292.1337,-44.2674"/>
<polygon fill="#000000" stroke="#000000" points="295.237,-42.6477 287.6343,-35.2687 288.976,-45.7782 295.237,-42.6477"/>
</g>
<!-- Q -->
<g id="node17" class="node">
<title>Q</title>
<ellipse fill="none" stroke="#000000" cx="351" cy="-18" rx="27" ry="18"/>
<text text-anchor="middle" x="351" y="-13.8" font-family="Times,serif" font-size="14.00" fill="#000000">Q</text>
</g>
<!-- L&#45;&gt;Q -->
<g id="edge16" class="edge">
<title>L&#45;&gt;Q</title>
<path fill="none" stroke="#000000" d="M323.7146,-72.5708C327.9597,-64.0807 333.1536,-53.6929 337.8663,-44.2674"/>
<polygon fill="#000000" stroke="#000000" points="341.024,-45.7782 342.3657,-35.2687 334.763,-42.6477 341.024,-45.7782"/>
</g>
</g>
</svg>